<svg width="128" height="128" viewBox="0 0 128 128" fill="none" xmlns="http://www.w3.org/2000/svg" role="img" aria-label="Incident Analytics Dashboard">
  <rect x="8" y="8" width="112" height="112" rx="28" fill="#0B5FFF"/>
  <path d="M38 82V46C38 41.5817 41.5817 38 46 38H82C86.4183 38 90 41.5817 90 46V82C90 86.4183 86.4183 90 82 90H46C41.5817 90 38 86.4183 38 82Z" fill="white" opacity="0.16"/>
  <path d="M46 38H82C86.4183 38 90 41.5817 90 46V82C90 86.4183 86.4183 90 82 90H46C41.5817 90 38 86.4183 38 82V46C38 41.5817 41.5817 38 46 38Z" stroke="white" stroke-width="6"/>
  <path d="M46 52H82" stroke="white" stroke-width="6" stroke-linecap="round"/>
  <path d="M46 66H66" stroke="white" stroke-width="6" stroke-linecap="round"/>
  <path d="M46 80H74" stroke="#FFC533" stroke-width="6" stroke-linecap="round"/>
  <circle cx="86" cy="80" r="6" fill="#16A34A"/>
</svg>

